<?xml version="1.0" encoding="UTF-8"?><svg id="Camada_2" xmlns="http://www.w3.org/2000/svg" viewBox="0 0 607.85 417.97"><defs><style>.cls-1{fill:#0071bc;}</style></defs><g id="Camada_1-2"><path class="cls-1" d="m553.39,151.44h-25v-7.93c0-65.35-53.16-118.51-118.51-118.51h-212.12c-65.35,0-118.51,53.16-118.51,118.51v7.34h-25v-7.34C54.25,64.38,118.63,0,197.76,0h212.12c79.13,0,143.51,64.38,143.51,143.51v7.93Z"/><path class="cls-1" d="m477.74,417.97H130.11C58.37,417.97,0,359.61,0,287.86v-63.64c0-47.86,38.94-86.8,86.8-86.8s86.8,38.94,86.8,86.8v13.03c86.61-9.4,173.9-9.4,260.65.01v-13.04c0-47.86,38.94-86.8,86.8-86.8s86.8,38.94,86.8,86.8v63.64c0,71.74-58.37,130.11-130.11,130.11ZM86.8,162.42c-34.08,0-61.8,27.72-61.8,61.8v63.64c0,57.96,47.15,105.11,105.11,105.11h347.63c57.96,0,105.11-47.15,105.11-105.11v-63.64c0-34.08-27.72-61.8-61.8-61.8s-61.8,27.72-61.8,61.8v16.01c9.63,1.25,19.26,2.61,28.88,4.09,28.99,2.83,50.79,25.22,50.79,52.25v2.55c0,28.86-23.48,52.34-52.34,52.34s-52.34-23.48-52.34-52.34v-36.72c-86.75-9.61-174.04-9.62-260.65-.01v36.73c0,28.86-23.48,52.34-52.34,52.34s-52.34-23.48-52.34-52.34v-2.55c0-25.96,19.11-45.92,49.88-52.09l.55-.1c9.74-1.5,19.49-2.89,29.25-4.16v-16c0-34.08-27.72-61.8-61.8-61.8Zm372.45,103.03v33.68c0,15.07,12.26,27.34,27.34,27.34s27.34-12.26,27.34-27.34v-2.55c0-16.28-14.32-26.1-28.47-27.39l-.77-.09c-8.47-1.31-16.95-2.52-25.43-3.64Zm-335.78,3.6c-7.28,1.5-29.54,7.72-29.54,27.53v2.55c0,15.07,12.26,27.34,27.34,27.34s27.34-12.26,27.34-27.34v-33.69c-8.39,1.11-16.76,2.31-25.14,3.61Z"/></g></svg>